# xmcd CD database file
#
# Track frame offsets:
#	150
#	31645
#	63031
#	79719
#	95136
#	100980
#	109656
#	120890
#	147111
#	155120
#
# Disc length: 2431 seconds
#
# Revision: 0
# Processed by: cddbd v1.5.2PL0 Copyright (c) Steve Scherf et al.
# Submitted via: Feurio! 1.68 - http://www.feurio.com
#
DISCID=74097d0a
DTITLE=B.B. King - Fillmore East   New York City, NY   06-19-71   Disc 1
DYEAR=1900
DGENRE=
TTITLE0=Let Me Love You
TTITLE1=Walkin' Doctor Bill
TTITLE2=You're So Fine
TTITLE3=Ain't That Just Like A Woman
TTITLE4=instrumental
TTITLE5=instrumental
TTITLE6=Please Accept My Love
TTITLE7=The Thrill Is Gone
TTITLE8=instrumental
TTITLE9=Sweet Sixteen
EXTD=
EXTT0=
EXTT1=
EXTT2=
EXTT3=
EXTT4=
EXTT5=
EXTT6=
EXTT7=
EXTT8=
EXTT9=
PLAYORDER=
